<?xml version="1.0" encoding="UTF-8"?>
<svg xmlns="http://www.w3.org/2000/svg" xmlns:xlink="http://www.w3.org/1999/xlink" width="242.97pt" height="161.27pt" viewBox="0 0 242.97 161.27" version="1.2">
<defs>
<clipPath id="clip1">
  <path d="M 0.53125 0 L 242.40625 0 L 242.40625 160.542969 L 0.53125 160.542969 Z M 0.53125 0 "/>
</clipPath>
</defs>
<g id="surface1">
<g clip-path="url(#clip1)" clip-rule="nonzero">
<path d="M 121.390625 69.039062 C 109.140625 69.039062 99.039062 58.863281 99.039062 46.535156 C 99.039062 34.214844 109.140625 24.027344 121.390625 24.027344 C 133.960938 24.027344 143.894531 34.214844 143.894531 46.535156 C 143.894531 58.863281 133.960938 69.039062 121.390625 69.039062 Z M 239.871094 63.460938 L 121.457031 0.00390625 L 3.011719 63.378906 C 3.011719 63.378906 0.53125 64.835938 0.53125 67.574219 C 0.53125 70.183594 2.644531 72.3125 5.253906 72.3125 L 13.914062 72.3125 L 13.914062 160.542969 L 45.023438 160.542969 L 45.023438 120.921875 C 45.023438 112.335938 52.078125 105.308594 60.847656 105.308594 C 69.617188 105.308594 76.652344 112.335938 76.671875 120.921875 L 76.671875 160.542969 L 99.71875 160.542969 L 99.71875 106.117188 C 99.71875 94.328125 109.410156 84.671875 121.445312 84.671875 C 133.496094 84.671875 143.148438 94.328125 143.183594 106.117188 L 143.183594 160.542969 L 166.042969 160.542969 L 166.042969 120.921875 C 166.042969 112.335938 173.085938 105.308594 181.855469 105.308594 C 190.621094 105.308594 197.65625 112.335938 197.679688 120.921875 L 197.679688 160.542969 L 228.988281 160.542969 L 228.988281 72.3125 L 237.6875 72.3125 C 240.292969 72.3125 242.40625 70.183594 242.40625 67.574219 C 242.40625 65.769531 241.355469 64.257812 239.871094 63.460938 " style=" stroke:none;fill-rule:nonzero;fill:currentColor;fill-opacity:1;"/>
</g>
<path d="M 136.324219 37.648438 C 135.761719 36.820312 134.652344 36.609375 133.835938 37.164062 L 121.324219 45.671875 L 111.199219 40.574219 C 110.316406 40.136719 109.242188 40.496094 108.796875 41.382812 C 108.355469 42.273438 108.714844 43.347656 109.605469 43.789062 L 121.613281 49.824219 L 135.867188 40.125 C 136.664062 39.570312 136.878906 38.460938 136.324219 37.648438 " style=" stroke:none;fill-rule:nonzero;fill:currentColor;fill-opacity:1;"/>
</g>
</svg>