<?xml version="1.0" encoding="UTF-8"?>
<svg xmlns="http://www.w3.org/2000/svg" width="250px" height="250px" viewBox="0 0 283.46 283.46">
	<title>Paris transit icons - Ligne de Sceaux</title>
	<rect fill="#25303B" width="283.46" height="283.46" rx="63.78"/>
	<path fill="#FFF" d="M133.86,220.28c-17.86,0-32.32-5.1-42.1-9.99l9.14-25.94c8.29,5.1,22.12,9.78,34.66,9.78,14.03,0,24.67-5.53,24.67-18.07,0-11.06-10.63-15.74-19.35-19.35l-11.06-4.68c-19.99-8.51-35.72-19.35-35.72-44.02,0-25.94,21.26-45.51,54.23-45.51,13.4,0,28.71,2.34,41.04,8.51l-9.78,25.31c-8.72-5.1-19.56-8.29-31.26-8.29-17.44,0-21.9,10-21.9,16.59,0,10.42,10.42,14.88,18.93,18.71l11.06,4.89c19.35,8.51,36.36,19.14,36.36,43.17,0,35.72-28.07,48.91-58.9,48.91Z"/>
</svg>